<!DOCTYPE svg>
<svg xmlns="http://www.w3.org/2000/svg">
 <rect width="100%" height="100%" fill="black" />
 <svg id="camera">
  <g id="camerazoom" transform="scale(30)">
   <g id="camerarotate" transform="rotate(0)">
    <g id="cameraoffset" transform="translate(0,0)">
     <g id="scene">
     </g>
    </g>
   </g>
  </g>
 </svg>
 
 <defs id="sprites">
 
  <svg id="smiles" x="-0.5" y="-0.5" width="1" height="1">
   <g transform="scale(0.8)">
   <g transform="scale(0.01)">
   <circle cx="50" cy="50" r="42" style="fill:rgb(255,255,100);stroke-width=8;stroke:black" />
   <ellipse cx="35" cy="35" rx="10" ry="15" style="fill:white" />
   <ellipse cx="65" cy="35" rx="10" ry="15" style="fill:white" />
   <circle cx="38" cy="40" r="8" style="fill:black" />
   <circle cx="68" cy="40" r="8" style="fill:black" />
   <path d="M30 50 T30 70 T70 70 T30 70" />
   </g>
   </g>
  </svg>
  
  <svg id="glowycircle" x="-0.5" y="-0.5" width="1" height="1">
   <g transform="scale(0.01)">
   <defs>
    <radialGradient id="gradient">
     <stop offset="0%" style="stop-color:blue" />
     <stop offset="70%" style="stop-color:white">
     <animate attributeName="stop-color" attributeType="CSS" values="white;pink;black;purple;white" dur="3s" repeatCount="indefinite" />
     </stop>
     <stop offset="100%" style="stop-color:cyan" />
    </radialGradient>
   </defs>
   <circle cx="50" cy="50" r="40" fill="url(#gradient)"/>
   </g>
  </svg>
  
  <svg id="floor" x="-0.5" y="-0.5" width="1" height="1">
   <g transform="scale(0.01)">
   <filter id="bumpyFilter" filterUnits="objectBoundingBox">
    <feTurbulence type="turbulence" baseFrequency="0.01" numOctaves="8" stitchTiles="stitch" />
   </filter>
   <rect width="100" height="100" filter="url(#bumpyFilter)" />
   </g>
  </svg>

  <svg id="blackbox" x="-0.5" y="-0.5" width="1" height="1">
   <g transform="scale(0.01)">
    <polyline points="1,1 1,99, 99,99 99,1" style="fill:rgb(0,0,0);" />
   </g>
  </svg>
  
  <svg id="stairs" x="-0.5" y="-0.5" width="1" height="1">
   <g transform="scale(0.01)">
    <polyline points="5,5 5,95 95,95 95,65 65,65 65,35 35,35 35,5" style="fill:rgb(220,210,210);stroke-width=6;stroke:black" />
   </g>
  </svg>
  
  <svg id="bricks" x="-0.5" y="-0.5" width="1" height="1">
   <g transform="scale(0.01)">
   <rect width="100" height="100" style="fill:rgb(255,0,0)" />
   <rect x="5" y="5" width="40" height="22" style="fill:rgb(120, 00,0);stroke-width:5;stroke:rgb(255,250,230)" />
   <rect x="55" y="5" width="43" height="22" style="fill:rgb(120, 00,0);stroke-width:5;stroke:rgb(255,250,230)" />
   <rect x="2" y="37" width="20" height="24" style="fill:rgb(120, 00,0);stroke-width:5;stroke:rgb(255,250,230)" />
   <rect x="30" y="38" width="60" height="24" style="fill:rgb(120, 00,0);stroke-width:5;stroke:rgb(255,250,230)" />
   <rect x="4" y="72" width="42" height="21" style="fill:rgb(120, 00,0);stroke-width:5;stroke:rgb(255,250,230)" />
   <rect x="54" y="71" width="41" height="23" style="fill:rgb(120, 00,0);stroke-width:5;stroke:rgb(255,250,230)" />
   </g>
  </svg>
  
  <svg id="cake" x="-0.5" y="-0.5" width="1" height="1">
   <g transform="scale(0.01)">
   <defs>
    <radialGradient id="gradient">
     <stop offset="0%" style="stop-color:white" />
     <stop offset="70%" style="stop-color:orange"/>
     <stop offset="100%" style="stop-color:yellow" />
    </radialGradient>
   </defs>

   <path d="
    M 20 45
    L 20 70
    A 30 10 0 0 0 50 80
    A 30 10 0 0 0 80 70
    L 80 45 Z"
    stroke="#e2e08c" fill="#fffddb" />
  
   <ellipse cx="50" cy="45" rx="30" ry="10"
    stroke="#ffe5f8" fill="white" stroke-width="3" />
  
   <circle r="4" cx="28" cy="40" fill="red" stroke="#8e0000" />
   <circle r="4" cx="72" cy="40" fill="red" stroke="#8e0000" />
 
   <circle r="3" cx="42" cy="34" fill="red" stroke="#8e0000" />
   <circle r="3" cx="58" cy="34" fill="red" stroke="#8e0000" />
 
   <rect x="47" y="25" width="6" height="18" fill="white" stroke="gray" />
 
   <circle r="5" cx="41" cy="46" fill="red" stroke="#8e0000" />
   <circle r="5" cx="59" cy="46" fill="red" stroke="#8e0000" />
 
   <circle cx="50" cy="20" r="8" fill="url(#gradient)">
    <animate attributeName="r" attributeType="CSS" values="5;8;10;8;5" dur="5s" repeatCount="indefinite" />
   </circle>
   </g>
  </svg>
  
  <svg id="key" x="-0.5" y="-0.5" width="1" height="1">
   <g transform="scale(0.0014)">
    <path
       style="fill:#ffdd00;stroke:#070000;stroke-width:6;stroke-linecap:round;stroke-linejoin:round;stroke-miterlimit:4;"
       d="M 198.57227 215.21875 A 112.85714 158.57143 0 0 0 85.714844 373.79102 A 112.85714 158.57143 0 0 0 198.57227 532.36133 A 112.85714 158.57143 0 0 0 307.38281 415.18359 L 448.28516 415.18359 L 448.28516 495.79102 L 502.57227 495.79102 L 502.57227 415.18359 L 524.27344 415.18359 L 524.27344 499.51758 L 575.72656 499.51758 L 575.72656 415.18359 L 591.39258 415.18359 L 591.39258 332.39648 L 307.48047 332.39648 A 112.85714 158.57143 0 0 0 198.57227 215.21875 z M 197.14258 296.66992 A 53.121792 74.639488 0 0 1 250.26562 371.30859 A 53.121792 74.639488 0 0 1 197.14258 445.94727 A 53.121792 74.639488 0 0 1 144.02148 371.30859 A 53.121792 74.639488 0 0 1 197.14258 296.66992 z "
    />
   </g>
  </svg>
  
  <svg id="lock" x="-0.5" y="-0.5" width="1" height="1">
   <g transform="scale(0.0014)">
    <path
       d="M 380.00064,106.00198 A 226.36101,226.36101 0 0 0 153.63897,332.3621 226.36101,226.36101 0 0 0 380.00064,558.72376 226.36101,226.36101 0 0 0 606.36076,332.3621 226.36101,226.36101 0 0 0 380.00064,106.00198 Z m 0,75.39311 A 148.72617,148.72617 0 0 1 528.72623,330.12068 148.72617,148.72617 0 0 1 380.00064,478.84781 148.72617,148.72617 0 0 1 231.2735,330.12068 148.72617,148.72617 0 0 1 380.00064,181.39509 Z"
       style="fill:#ffdd00;fill-opacity:1;stroke:#070000;stroke-width:4.70651579;stroke-linecap:round;stroke-linejoin:round;stroke-miterlimit:4;stroke-dasharray:none;stroke-opacity:1" />
    <path
       d="M 119.12842,291.99362 A 283.22544,283.22544 0 0 0 96.774044,402.27659 283.22544,283.22544 0 0 0 379.99972,685.50223 283.22544,283.22544 0 0 0 663.2254,402.27659 283.22544,283.22544 0 0 0 640.55234,291.99362 l -521.42392,0 z"
       style="fill:#b5c2c2;fill-opacity:1;stroke:#070000;stroke-width:5.26348162;stroke-linecap:round;stroke-linejoin:round;stroke-miterlimit:4;stroke-dasharray:none;stroke-opacity:1" />
    <path
       d="m 378.00055,343.50531 a 57.142857,57.142857 0 0 0 -57.14257,57.14257 57.142857,57.142857 0 0 0 35.76953,52.95313 l -38.70508,135.72266 120.15234,0 -37.47265,-136.26563 a 57.142857,57.142857 0 0 0 34.54101,-52.41016 57.142857,57.142857 0 0 0 -57.14258,-57.14257 z"
       style="fill:#ffdd00;fill-opacity:1;stroke:#070000;stroke-width:6;stroke-linecap:round;stroke-linejoin:round;stroke-miterlimit:4;stroke-dasharray:none;stroke-opacity:1" />
   </g>
  </svg>
  
 </defs>
</svg>
